<?xml version="1.0" encoding="UTF-8" standalone="no"?>
<svg
   xmlns:dc="http://purl.org/dc/elements/1.1/"
   xmlns:cc="http://creativecommons.org/ns#"
   xmlns:rdf="http://www.w3.org/1999/02/22-rdf-syntax-ns#"
   xmlns:svg="http://www.w3.org/2000/svg"
   xmlns="http://www.w3.org/2000/svg"
   xmlns:sodipodi="http://sodipodi.sourceforge.net/DTD/sodipodi-0.dtd"
   xmlns:inkscape="http://www.inkscape.org/namespaces/inkscape"
   width="239"
   height="89"
   viewBox="0 0 63.235418 23.547916"
   version="1.1"
   id="svg8"
   inkscape:version="1.0.1 (3bc2e813f5, 2020-09-07)"
   sodipodi:docname="logo.svg">
  <defs
     id="defs2" />
  <sodipodi:namedview
     id="base"
     pagecolor="#ffffff"
     bordercolor="#666666"
     borderopacity="1.0"
     inkscape:pageopacity="0.0"
     inkscape:pageshadow="2"
     inkscape:zoom="3.959798"
     inkscape:cx="128.86368"
     inkscape:cy="27.848445"
     inkscape:document-units="px"
     inkscape:current-layer="g925"
     inkscape:document-rotation="0"
     showgrid="false"
     units="px"
     inkscape:showpageshadow="false"
     inkscape:snap-page="false"
     inkscape:window-width="1920"
     inkscape:window-height="1027"
     inkscape:window-x="-8"
     inkscape:window-y="-8"
     inkscape:window-maximized="1"
     showguides="true"
     inkscape:guide-bbox="true" />
  <metadata
     id="metadata5">
    <rdf:RDF>
      <cc:Work
         rdf:about="">
        <dc:format>image/svg+xml</dc:format>
        <dc:type
           rdf:resource="http://purl.org/dc/dcmitype/StillImage" />
        <dc:title></dc:title>
      </cc:Work>
    </rdf:RDF>
  </metadata>
  <g
     inkscape:label="ESIP (svg)"
     inkscape:groupmode="layer"
     id="g925"
     style="display:inline">
    <g
       aria-label="S"
       id="text13"
       style="font-style:normal;font-variant:normal;font-weight:normal;font-stretch:normal;font-size:27.6824px;line-height:1.25;font-family:'Segoe Script';-inkscape-font-specification:'Segoe Script';fill:#1e8e5f;fill-opacity:1;stroke-width:0.192238">
      <path
         d="m 18.825247,4.37893 q 0,0.1892352 -0.05407,0.4595711 -0.04055,0.270336 -0.135168,0.5677055 -0.09462,0.2838527 -0.216269,0.5541887 -0.108134,0.2568191 -0.256819,0.4190207 h 0.01352 q -0.432538,0.5136382 -2.041036,0.5136382 0,-0.5812222 -0.05407,-1.0002429 -0.04055,-0.4325375 -0.148684,-0.6893567 -0.09462,-0.2162687 -0.33792,-0.3649535 -0.243303,-0.1486847 -0.554189,-0.2433023 -0.297369,-0.094618 -0.608256,-0.135168 -0.310886,-0.054067 -0.540672,-0.054067 -0.581222,0 -1.135411,0.027034 -0.554188,0.027034 -1.09486,0.1081344 Q 11.13419,4.6222324 10.580001,4.7709171 10.039329,4.9196019 9.4716238,5.1493874 9.0661199,5.311589 8.6065488,5.5548913 8.1604945,5.7981937 7.7685074,6.10908 7.3765203,6.4064495 7.0926676,6.7714031 6.8223316,7.1228398 6.7547476,7.5283437 l 0.013517,-0.027034 q 0,0.3244031 0.2162688,0.729907 0.2162687,0.3919871 0.5812222,0.7839742 0.3784704,0.3784703 0.865075,0.7028734 0.4866047,0.3108863 1.0272766,0.4595713 0.04055,0.01352 0.2297855,0.0811 0.1892352,0.06758 0.4595715,0.162201 0.270336,0.0811 0.567705,0.189235 0.310886,0.108135 0.567706,0.202752 0.270335,0.0811 0.446054,0.148685 0.189235,0.05407 0.216269,0.06758 3.135896,0.797491 4.649778,1.919385 1.513881,1.121894 1.513881,2.757427 0,0.527155 -0.229786,1.05431 -0.229785,0.513638 -0.581222,0.986726 -0.351437,0.473088 -0.770457,0.878592 -0.405504,0.391987 -0.770458,0.662323 l 0.01352,-0.01352 q -0.391987,0.310886 -0.892109,0.63529 -0.486604,0.324403 -1.05431,0.635289 -0.567705,0.310886 -1.175961,0.581222 -0.608256,0.270336 -1.243545,0.473088 -0.594739,0.189235 -1.257062,0.351437 -0.6488066,0.175718 -1.2976129,0.297369 -0.6488062,0.121652 -1.2570621,0.189235 -0.594739,0.06758 -1.0813437,0.06758 -0.2568191,0 -0.6352894,-0.06758 Q 5.5112023,22.383303 5.0921816,22.275169 4.6866777,22.167035 4.267657,22.01835 3.8621531,21.869665 3.53775,21.68043 3.2133469,21.491195 3.0105949,21.274926 2.807843,21.058657 2.807843,20.815355 q 0,-0.216269 0.081101,-0.527155 0.081101,-0.310887 0.2297855,-0.594739 0.1622016,-0.29737 0.3649535,-0.500122 0.2162688,-0.216268 0.4595711,-0.216268 0.3379199,0 0.6352895,0.0811 0.2973695,0.0811 0.662323,0.189235 0.3784703,0.09462 0.865075,0.189236 0.5001215,0.0811 1.2300285,0.0811 0.729907,0 1.5138812,-0.148684 0.797491,-0.162202 1.5679489,-0.419021 0.770457,-0.270336 1.47333,-0.608256 0.702874,-0.33792 1.270579,-0.702873 0.243303,-0.162202 0.527155,-0.364954 0.29737,-0.216269 0.540672,-0.459571 0.256819,-0.256819 0.419021,-0.527155 0.175718,-0.270336 0.175718,-0.554189 0,-0.324403 -0.486604,-0.621772 v 0.01352 Q 13.62128,14.692246 12.918407,14.46246 12.215534,14.232675 11.688378,14.08399 10.201531,13.70552 8.0658769,12.880995 h 0.013517 Q 7.1872851,12.529558 6.3492437,11.97537 5.5112023,11.421181 4.9029465,10.812925 3.5512668,9.3125608 3.5512668,7.3526253 q 0,-0.7704574 0.4325375,-1.5003644 Q 4.4163418,5.1223539 5.1597656,4.4870644 5.9031894,3.8382582 6.8763988,3.2975863 7.863125,2.7569144 8.9715023,2.3784441 10.07988,1.986457 11.228807,1.7701883 q 1.162445,-0.2162688 2.243789,-0.2162688 0.33792,0 0.838041,0.054067 0.513638,0.04055 1.040793,0.135168 0.540672,0.081101 1.027277,0.2162687 0.486605,0.1216512 0.770457,0.2838527 h -0.01352 q 0.783974,0.4190207 1.230028,1.000243 0.459571,0.5812223 0.459571,1.1354109 z"
         style="font-style:normal;font-variant:normal;font-weight:bold;font-stretch:normal;font-size:27.6824px;font-family:'Segoe Script';-inkscape-font-specification:'Segoe Script Bold';fill:#1e8e5f;fill-opacity:1;stroke-width:0.192238"
         id="path859" />
    </g>
    <g
       aria-label="PPE"
       id="text23"
       style="font-size:23.7793px;line-height:1.25;font-family:'Sofia Handwritten';-inkscape-font-specification:'Sofia Handwritten';stroke-width:0.165134">
      <path
         id="path862"
         style="font-style:normal;font-variant:normal;font-weight:bold;font-stretch:normal;font-size:23.7793px;font-family:'Gentium Basic';-inkscape-font-specification:'Gentium Basic Bold';stroke-width:0.624129"
         d="M 103.6875 28.242188 C 101.7566 28.242187 99.723581 28.314657 97.587891 28.460938 C 95.481457 28.577961 93.374012 28.754233 91.267578 28.988281 C 89.1904 29.22233 87.18676 29.500449 85.255859 29.822266 C 83.324962 30.144082 81.570059 30.494672 79.990234 30.875 L 80.560547 34.912109 C 81.438226 34.765829 82.374434 34.62089 83.369141 34.474609 C 84.393103 34.32833 85.460538 34.181437 86.572266 34.035156 L 86.572266 78.972656 C 86.572266 79.382241 86.061072 79.834678 85.037109 80.332031 C 84.042406 80.800128 82.549957 81.238853 80.560547 81.648438 L 80.560547 84.853516 L 104.91602 84.853516 L 104.91602 81.648438 C 103.3947 81.385138 102.15099 81.136397 101.18555 80.902344 C 100.2201 80.6683 99.460162 80.435225 98.904297 80.201172 C 98.377698 79.967131 98.011441 79.747769 97.806641 79.542969 C 97.631094 79.338186 97.542969 79.148203 97.542969 78.972656 L 97.542969 32.982422 C 98.1866 32.953166 98.801597 32.9375 99.386719 32.9375 C 100.0011 32.908244 100.60043 32.894531 101.18555 32.894531 C 103.29198 32.894531 105.20944 33.172651 106.93555 33.728516 C 108.66165 34.255124 110.13844 35.058152 111.36719 36.140625 C 112.6252 37.193842 113.59078 38.511969 114.26367 40.091797 C 114.96581 41.671622 115.31641 43.498994 115.31641 45.576172 C 115.31641 47.653352 115.02457 49.437631 114.43945 50.929688 C 113.85433 52.421744 113.07873 53.651737 112.11328 54.617188 C 111.17709 55.582635 110.09399 56.299481 108.86523 56.767578 C 107.63648 57.206419 106.39473 57.425781 105.13672 57.425781 C 104.11276 57.425781 103.13151 57.351371 102.19531 57.205078 C 101.28838 57.029542 100.23465 56.66524 99.035156 56.109375 L 100.39648 60.716797 C 101.39119 61.155633 102.53109 61.492509 103.81836 61.726562 C 105.10562 61.931363 106.42375 62.033203 107.76953 62.033203 C 109.0568 62.033203 110.40235 61.872595 111.80664 61.550781 C 113.24019 61.199708 114.6445 60.686561 116.01953 60.013672 C 117.42382 59.340782 118.74 58.49271 119.96875 57.46875 C 121.22676 56.444788 122.32357 55.259839 123.25977 53.914062 C 124.22521 52.568286 124.98515 51.048414 125.54102 49.351562 C 126.09688 47.654713 126.375 45.79601 126.375 43.777344 C 126.375 41.261325 125.83443 39.03832 124.75195 37.107422 C 123.66948 35.176524 122.13394 33.552849 120.14453 32.236328 C 118.15512 30.919807 115.75585 29.924842 112.94727 29.251953 C 110.16794 28.579064 107.0812 28.242188 103.6875 28.242188 z M 154.63672 28.242188 C 152.70582 28.242187 150.6728 28.314657 148.53711 28.460938 C 146.43068 28.577961 144.32518 28.754233 142.21875 28.988281 C 140.14157 29.22233 138.13598 29.500449 136.20508 29.822266 C 134.27418 30.144082 132.51928 30.494672 130.93945 30.875 L 131.50977 34.912109 C 132.38745 34.765829 133.32366 34.62089 134.31836 34.474609 C 135.34232 34.32833 136.40976 34.181437 137.52148 34.035156 L 137.52148 78.972656 C 137.52148 79.382241 137.01029 79.834678 135.98633 80.332031 C 134.99162 80.800128 133.49918 81.238853 131.50977 81.648438 L 131.50977 84.853516 L 155.86523 84.853516 L 155.86523 81.648438 C 154.34392 81.385138 153.10021 81.136397 152.13477 80.902344 C 151.16932 80.6683 150.40938 80.435225 149.85352 80.201172 C 149.32691 79.967131 148.96066 79.747769 148.75586 79.542969 C 148.58031 79.338186 148.49414 79.148203 148.49414 78.972656 L 148.49414 32.982422 C 149.13777 32.953166 149.75082 32.9375 150.33594 32.9375 C 150.95031 32.908244 151.54964 32.894531 152.13477 32.894531 C 154.2412 32.894531 156.15866 33.172651 157.88477 33.728516 C 159.61087 34.255124 161.08765 35.058152 162.31641 36.140625 C 163.57441 37.193842 164.54 38.511969 165.21289 40.091797 C 165.91504 41.671622 166.26562 43.498994 166.26562 45.576172 C 166.26562 47.653352 165.97379 49.437631 165.38867 50.929688 C 164.80355 52.421744 164.02795 53.651737 163.0625 54.617188 C 162.12631 55.582635 161.04321 56.299481 159.81445 56.767578 C 158.5857 57.206419 157.34395 57.425781 156.08594 57.425781 C 155.06198 57.425781 154.08072 57.351371 153.14453 57.205078 C 152.23759 57.029542 151.18387 56.66524 149.98438 56.109375 L 151.3457 60.716797 C 152.34041 61.155633 153.48227 61.492509 154.76953 61.726562 C 156.0568 61.931363 157.37297 62.033203 158.71875 62.033203 C 160.00601 62.033203 161.35157 61.872595 162.75586 61.550781 C 164.1894 61.199708 165.59372 60.686561 166.96875 60.013672 C 168.37304 59.340782 169.68922 58.49271 170.91797 57.46875 C 172.17598 56.444788 173.27279 55.259839 174.20898 53.914062 C 175.17443 52.568286 175.93632 51.048414 176.49219 49.351562 C 177.04805 47.654713 177.32422 45.79601 177.32422 43.777344 C 177.32422 41.261325 176.78364 39.03832 175.70117 37.107422 C 174.6187 35.176524 173.08316 33.552849 171.09375 32.236328 C 169.10434 30.919807 166.70506 29.924842 163.89648 29.251953 C 161.11716 28.579064 158.03042 28.242188 154.63672 28.242188 z M 182.45898 29.558594 L 182.45898 32.761719 C 184.56542 33.171303 186.08724 33.639407 187.02344 34.166016 C 187.98889 34.692624 188.4707 35.13135 188.4707 35.482422 L 188.4707 78.972656 C 188.4707 79.382241 187.95951 79.834678 186.93555 80.332031 C 185.94084 80.800128 184.44839 81.238853 182.45898 81.648438 L 182.45898 84.853516 L 223.92969 84.853516 C 224.0467 84.414675 224.17793 83.711544 224.32422 82.746094 C 224.49974 81.780646 224.67602 80.683833 224.85156 79.455078 C 225.02709 78.19707 225.18769 76.880894 225.33398 75.505859 C 225.48027 74.101571 225.6115 72.769727 225.72852 71.511719 L 222.52539 70.371094 C 221.91101 72.097199 221.29602 73.544601 220.68164 74.714844 C 220.09652 75.885084 219.43843 76.836958 218.70703 77.568359 C 217.97563 78.270502 217.12756 78.781699 216.16211 79.103516 C 215.22592 79.425332 214.08601 79.585938 212.74023 79.585938 L 208.39453 79.585938 C 206.46363 79.585938 204.91438 79.529124 203.74414 79.412109 C 202.5739 79.265834 201.66512 79.073897 201.02148 78.839844 C 200.37786 78.576539 199.9548 78.284705 199.75 77.962891 C 199.5452 77.611818 199.44336 77.216185 199.44336 76.777344 L 199.44336 57.25 L 205.63086 57.25 C 206.85961 57.25 207.91138 57.293099 208.78906 57.380859 C 209.696 57.46862 210.4716 57.615512 211.11523 57.820312 C 211.78812 58.025105 212.37374 58.273846 212.87109 58.566406 C 213.3977 58.858964 213.87952 59.225222 214.31836 59.664062 C 214.64018 59.430014 214.97705 59.093135 215.32812 58.654297 C 215.70845 58.1862 216.07471 57.688719 216.42578 57.162109 C 216.80611 56.6355 217.1567 56.10864 217.47852 55.582031 C 217.82958 55.026169 218.12337 54.544351 218.35742 54.134766 L 216.9082 52.597656 L 199.44336 52.597656 L 199.44336 34.824219 L 214.1875 34.824219 C 215.26997 34.824219 216.10433 35.541064 216.68945 36.974609 C 217.27457 38.378898 217.63888 40.441298 217.78516 43.162109 L 221.07812 43.162109 C 221.25365 42.606244 221.42797 41.803216 221.60352 40.75 C 221.8083 39.667526 221.99828 38.525668 222.17383 37.326172 C 222.34937 36.126675 222.49627 34.957391 222.61328 33.816406 C 222.73032 32.675421 222.81845 31.723548 222.87695 30.962891 L 221.12109 29.558594 L 182.45898 29.558594 z "
         transform="scale(0.26458333)" />
    </g>
  </g>
  <g
     inkscape:groupmode="layer"
     id="layer3"
     inkscape:label="G (svg)" />
</svg>
