<?xml version="1.0" standalone="no"?>
<!DOCTYPE svg PUBLIC "-//W3C//DTD SVG 20010904//EN"
 "http://www.w3.org/TR/2001/REC-SVG-20010904/DTD/svg10.dtd">
<svg version="1.0" xmlns="http://www.w3.org/2000/svg"
 width="512.000000pt" height="512.000000pt" viewBox="0 0 512.000000 512.000000"
 preserveAspectRatio="xMidYMid meet">
<metadata>
Created by potrace 1.14, written by Peter Selinger 2001-2017
</metadata>
<g transform="translate(0.000000,512.000000) scale(0.100000,-0.100000)"
fill="#000000" stroke="none">
<path d="M3159 5046 c-2 -2 -56 -6 -119 -10 -311 -17 -641 -88 -980 -213 -379
-139 -677 -317 -908 -540 -156 -152 -252 -303 -292 -456 -36 -140 -18 -369 41
-542 97 -280 264 -484 564 -685 44 -29 92 -62 107 -72 54 -36 216 -118 308
-156 207 -86 739 -267 845 -288 40 -7 352 -106 421 -133 109 -43 283 -139 320
-179 58 -62 57 -125 -4 -226 -101 -168 -383 -365 -767 -536 -181 -81 -423
-155 -630 -194 -181 -33 -475 -39 -615 -11 -14 2 -36 7 -50 10 -14 2 -40 7
-59 10 -19 3 -37 8 -41 10 -3 2 -18 6 -31 8 -14 3 -56 14 -94 26 -164 48 -263
56 -311 25 -97 -63 -177 -217 -199 -387 -14 -101 68 -189 258 -277 72 -34 235
-89 307 -104 92 -20 133 -28 195 -37 68 -10 188 -12 270 -4 104 9 162 15 185
20 14 2 42 7 63 10 84 12 115 17 187 32 41 8 84 17 95 19 18 3 71 15 85 19 3
1 19 5 35 9 405 106 562 162 830 298 574 290 979 673 1086 1028 23 78 31 210
16 301 -14 87 -68 219 -121 293 -189 266 -597 486 -1215 652 -53 14 -132 37
-176 52 -44 14 -82 25 -85 25 -3 -1 -13 3 -23 9 -10 5 -135 49 -277 98 -286
98 -353 129 -476 226 -202 157 -329 373 -294 498 43 153 246 334 521 465 213
101 451 173 644 196 33 4 69 9 80 11 40 8 233 17 360 18 149 0 215 -7 312 -34
178 -49 249 -111 269 -235 3 -21 8 -47 10 -59 2 -11 7 -73 10 -136 4 -63 8
-117 10 -119 11 -12 196 4 293 25 131 30 179 67 236 183 75 151 114 346 93
457 -34 177 -277 410 -500 479 -116 36 -311 77 -430 91 -24 2 -56 6 -73 8 -16
3 -84 8 -150 12 -66 3 -123 8 -126 10 -3 2 -8 2 -10 0z"/>
</g>
</svg>
